<?xml version="1.0" encoding="utf-8"?>
<!-- Generator: Adobe Illustrator 27.5.0, SVG Export Plug-In . SVG Version: 6.00 Build 0)  -->
<svg version="1.1" id="Layer_1" xmlns="http://www.w3.org/2000/svg" xmlns:xlink="http://www.w3.org/1999/xlink" x="0px" y="0px"
	 viewBox="0 0 36 36" style="enable-background:new 0 0 36 36;" xml:space="preserve">
<style type="text/css">
	.st0{fill:none;stroke:#0E1A2C;stroke-width:2;stroke-miterlimit:10;}
	.st1{fill:none;stroke:#0E1A2C;stroke-linecap:round;stroke-miterlimit:10;}
	.st2{fill:none;stroke:#FFFFFF;stroke-width:2;stroke-miterlimit:10;}
	.st3{fill:none;stroke:#FFFFFF;stroke-linecap:round;stroke-miterlimit:10;}
</style>
<g>
	<g>
		<path class="st2" d="M28.1,30H7.9c-1,0-1.9-0.8-1.9-1.9V7.9C6,6.8,6.8,6,7.9,6h20.2c1,0,1.9,0.8,1.9,1.9v20.2
			C30,29.2,29.2,30,28.1,30z"/>
	</g>
	<g>
		<path class="st3" d="M10.9,16.3c1.8-0.1,3.2-0.1,4.2,0c2.4,0.1,2.9,0.3,3.9-0.1c1.4-0.6,1.5-1.6,2.9-2.6c1.4-0.9,2.8-1,3.7-1"/>
		<path class="st3" d="M10.9,19.8c1.8-0.1,3.2-0.1,4.2,0c2.4,0.1,2.9,0.3,3.9-0.1c1.4-0.6,1.5-1.6,2.9-2.6c1.4-0.9,2.8-1,3.7-1"/>
		<path class="st3" d="M10.9,23.1c1.8-0.1,3.2-0.1,4.2,0c2.4,0.1,2.9,0.3,3.9-0.1c1.4-0.6,1.5-1.6,2.9-2.6c1.4-0.9,2.8-1,3.7-1"/>
	</g>
</g>
</svg>
