<?xml version="1.0" encoding="utf-8"?>
<!-- Generator: Adobe Illustrator 27.5.0, SVG Export Plug-In . SVG Version: 6.00 Build 0)  -->
<svg version="1.1" id="Layer_1" xmlns="http://www.w3.org/2000/svg" xmlns:xlink="http://www.w3.org/1999/xlink" x="0px" y="0px"
	 viewBox="0 0 36 36" style="enable-background:new 0 0 36 36;" xml:space="preserve">
<style type="text/css">
	.st0{fill:none;stroke:#0E1A2C;stroke-width:2;stroke-miterlimit:10;}
	.st1{fill:none;stroke:#0D1A2C;stroke-linecap:round;stroke-miterlimit:10;}
	.st2{fill:none;stroke:#FFFFFF;stroke-width:2;stroke-miterlimit:10;}
	.st3{fill:none;stroke:#FFFFFF;stroke-linecap:round;stroke-miterlimit:10;}
</style>
<g>
	<g>
		<path class="st0" d="M28.1,30H7.9c-1,0-1.9-0.8-1.9-1.9V7.9C6,6.8,6.8,6,7.9,6h20.2c1,0,1.9,0.8,1.9,1.9v20.2
			C30,29.2,29.2,30,28.1,30z"/>
		<path class="st1" d="M10.6,16.4c-0.6,3.6,1.3,7.1,4.5,8.5c2.7,1.2,6,0.6,8.2-1.5c2.4-2.4,3-6.2,1.3-9.1c-2.1-3.5-6.3-3.6-6.5-3.6"
			/>
		<path class="st1" d="M13.2,17.3c-0.2,2.3,1.2,4.5,3.3,5.2c1.8,0.6,3.9,0.1,5.2-1.4c1.4-1.6,1.6-4.1,0.4-5.9c-1.5-2.2-4.2-2-4.4-2"
			/>
	</g>
</g>
</svg>
