<?xml version="1.0" encoding="utf-8"?>
<!-- Generator: Adobe Illustrator 27.5.0, SVG Export Plug-In . SVG Version: 6.00 Build 0)  -->
<svg version="1.1" id="Layer_1" xmlns="http://www.w3.org/2000/svg" xmlns:xlink="http://www.w3.org/1999/xlink" x="0px" y="0px"
	 viewBox="0 0 2000 2000" style="enable-background:new 0 0 2000 2000;" xml:space="preserve">
<style type="text/css">
	.st0{fill:#FAFAFA;}
	.st1{fill:#4DA3CF;}
	.st2{font-family:'AeonikPro-Medium';}
	.st3{font-size:78.7164px;}
	.st4{fill:#0F1A2C;}
</style>
<g>
	<g>
		<path class="st1" d="M1041,1262.9c0,33.4-22.3,55.9-52.5,55.9c-16,0-27.5-5.7-34.6-14c-1-1.2-2.9-0.5-2.9,1.1v52.8
			c0,0.9-0.7,1.7-1.7,1.7h-14.2c-0.9,0-1.7-0.7-1.7-1.7v-148.7c0-0.9,0.7-1.7,1.7-1.7h12.1c0.8,0,1.5,0.6,1.6,1.4l1.6,12.2
			c0.2,1.4,2,1.9,2.9,0.9c7.4-8.7,18.6-15.8,35.1-15.8C1018.7,1207,1041,1227.3,1041,1262.9z M1023,1262.9
			c0-23.8-14.6-40.3-36.2-40.3c-21.4,0-36,16.5-36,39.8c0,24,14.6,40.7,36,40.7C1008.5,1303.2,1023,1286.7,1023,1262.9z"/>
		<path class="st1" d="M507,1169.6c0-0.9,0.7-1.7,1.7-1.7h51.5c31.9,0,49.7,15.4,49.7,39.6c0,15.2-7.4,25.2-18.9,30.7
			c-1.4,0.6-1.2,2.6,0.2,3.1c13.7,4.1,24.9,14.4,24.9,33.7c0,26.6-18.8,42.8-54.4,42.8h-53c-0.9,0-1.7-0.7-1.7-1.7V1169.6z
			 M525.7,1186.5v44.9c0,0.9,0.7,1.7,1.7,1.7H561c19.3,0,30.2-9,30.2-24.2c0-15-10.7-24-30.2-24h-33.7
			C526.4,1184.8,525.7,1185.6,525.7,1186.5z M525.7,1251.4v47.9c0,0.9,0.7,1.7,1.7,1.7h34.3c23.1,0,35.3-9.6,35.3-25.1
			c0-16.9-13.1-26.1-35.3-26.1h-34.3C526.4,1249.7,525.7,1250.5,525.7,1251.4z"/>
		<path class="st1" d="M643.9,1167.9h14.2c0.9,0,1.7,0.7,1.7,1.7v146.6c0,0.9-0.7,1.7-1.7,1.7h-14.2c-0.9,0-1.7-0.7-1.7-1.7v-146.6
			C642.2,1168.7,643,1167.9,643.9,1167.9z"/>
		<path class="st1" d="M766.1,1207.3h14.2c0.9,0,1.7,0.7,1.7,1.7v105.9c0,0.9-0.7,1.7-1.7,1.7h-12.1c-0.8,0-1.5-0.6-1.6-1.4
			l-1.6-9.6c-0.2-1.4-1.9-1.9-2.9-0.9c-6.6,7.1-16.6,13.2-32.6,13.2c-24,0-43.1-13.5-43.1-49.7V1209c0-0.9,0.7-1.7,1.7-1.7h14.2
			c0.9,0,1.7,0.7,1.7,1.7v58.1c0,22.7,10.3,34.7,28.5,34.7c19.9,0,31.9-15.2,31.9-39.8v-53C764.4,1208.1,765.2,1207.3,766.1,1207.3z
			"/>
		<path class="st1" d="M806.4,1261.9c0-33.2,21-55.9,51.8-55.9c30.8,0,51,19.5,51.8,51.8c0,1.9-0.1,4-0.3,6.1
			c-0.1,0.8-0.7,1.4-1.5,1.4h-81.9c-0.8,0-1.5,0.7-1.5,1.5l0,0c0.6,20.8,13.7,35.3,34.5,35.3c15,0,26.8-7.7,30.8-21.2
			c0.2-0.6,0.8-1.1,1.4-1.1h14.8c1,0,1.7,0.9,1.5,1.9c-4.9,20.9-22.6,36-47.1,36C827.8,1317.8,806.4,1295.4,806.4,1261.9z
			 M889.5,1250.8c0.9,0,1.6-0.8,1.5-1.7c-2.3-17.8-14.9-27.6-32.6-27.6c-15.5,0-29.9,10.8-32.3,27.6c-0.1,0.9,0.6,1.7,1.5,1.7H889.5
			z"/>
		<path class="st1" d="M1115.1,1210.3v13.8c0,0.9-0.7,1.7-1.7,1.7h-7.1c-22.9,0-29.1,19.1-29.1,36.4v54c0,0.9-0.7,1.7-1.7,1.7h-14.2
			c-0.9,0-1.7-0.7-1.7-1.7v-105.9c0-0.9,0.7-1.7,1.7-1.7h12.1c0.8,0,1.5,0.6,1.6,1.4l1.5,10.8c0.2,1.5,2.1,1.9,3,0.8
			c5.3-7,13.9-13,30.6-13h3.3C1114.4,1208.6,1115.1,1209.4,1115.1,1210.3z"/>
		<path class="st1" d="M1134.2,1178.8c0-6.6,4.9-11.4,11.4-11.4s11.4,4.7,11.4,11.4c0,6.6-4.9,11.4-11.4,11.4
			S1134.2,1185.5,1134.2,1178.8z M1138.2,1208.6h14.2c0.9,0,1.7,0.7,1.7,1.7v105.9c0,0.9-0.7,1.7-1.7,1.7h-14.2
			c-0.9,0-1.7-0.7-1.7-1.7v-105.9C1136.5,1209.4,1137.3,1208.6,1138.2,1208.6z"/>
		<path class="st1" d="M1281.9,1257v59.2c0,0.9-0.7,1.7-1.7,1.7H1266c-0.9,0-1.7-0.7-1.7-1.7v-58.1c0-22.7-10.5-34.7-29.6-34.7
			c-20.6,0-33,15.2-33,39.8v53c0,0.9-0.7,1.7-1.7,1.7h-14.2c-0.9,0-1.7-0.7-1.7-1.7v-105.9c0-0.9,0.7-1.7,1.7-1.7h12.1
			c0.8,0,1.5,0.6,1.6,1.4l1.6,9.8c0.2,1.4,1.9,1.9,2.9,0.9c6.7-7.2,17.3-13.3,33.7-13.3C1262.5,1207.3,1281.9,1220.8,1281.9,1257z"
			/>
		<path class="st1" d="M1313.3,1224.7h-16.4c-0.9,0-1.7-0.7-1.7-1.7v-12.7c0-0.9,0.7-1.7,1.7-1.7h16.4c0.9,0,1.7-0.7,1.7-1.7v-27.3
			c0-0.9,0.7-1.7,1.7-1.7h14.2c0.9,0,1.7,0.7,1.7,1.7v27.3c0,0.9,0.7,1.7,1.7,1.7h25c0.9,0,1.7,0.7,1.7,1.7v12.7
			c0,0.9-0.7,1.7-1.7,1.7h-25c-0.9,0-1.7,0.7-1.7,1.7v62.8c0,9.2,3.2,12.6,12.6,12.6h15.7c0.9,0,1.7,0.7,1.7,1.7v12.7
			c0,0.9-0.7,1.7-1.7,1.7h-17.4c-21,0-28.5-9.2-28.5-28.5v-63C1314.9,1225.4,1314.2,1224.7,1313.3,1224.7z"/>
		<text transform="matrix(1 0 0 1 1378.3508 1266.1707)" class="st1 st2 st3">TM</text>
	</g>
	<g>
		<path class="st1" d="M414.1,1113c-43.3,0-73.5-33-73.5-78.3c0-45.3,30.1-78.3,73.5-78.3s73.5,33,73.5,78.3
			C487.5,1080,457.4,1113,414.1,1113z M414.1,1095.4c32.1,0,53.9-25.3,53.9-60.7c0-35.4-21.8-60.7-53.9-60.7s-53.9,25.3-53.9,60.7
			C360.2,1070.1,381.9,1095.4,414.1,1095.4z"/>
		<path class="st1" d="M623.4,1050.9c0,34.3-22.9,57.4-53.9,57.4c-16.6,0-28.4-5.9-35.7-14.6c-0.9-1.1-2.8-0.5-2.8,1v54.7
			c0,0.9-0.7,1.6-1.6,1.6h-14.9c-0.9,0-1.6-0.7-1.6-1.6v-153c0-0.9,0.7-1.6,1.6-1.6h12.6c0.8,0,1.5,0.6,1.6,1.4l1.7,12.9
			c0.2,1.4,1.9,1.9,2.8,0.8c7.6-9.1,19.1-16.4,36.2-16.4C600.5,993.5,623.4,1014.4,623.4,1050.9z M604.9,1050.9
			c0-24.4-15-41.4-37.2-41.4c-22,0-37,16.9-37,40.9c0,24.6,15,41.8,37,41.8C590,1092.2,604.9,1075.3,604.9,1050.9z"/>
		<path class="st1" d="M655.3,1017.3h-17.1c-0.9,0-1.6-0.7-1.6-1.6v-13.3c0-0.9,0.7-1.6,1.6-1.6h17.1c0.9,0,1.6-0.7,1.6-1.6V971
			c0-0.9,0.7-1.6,1.6-1.6h14.9c0.9,0,1.6,0.7,1.6,1.6v28.3c0,0.9,0.7,1.6,1.6,1.6h25.9c0.9,0,1.6,0.7,1.6,1.6v13.3
			c0,0.9-0.7,1.6-1.6,1.6h-25.9c-0.9,0-1.6,0.7-1.6,1.6v64.6c0,9.5,3.3,13,13,13h16.2c0.9,0,1.6,0.7,1.6,1.6v13.3
			c0,0.9-0.7,1.6-1.6,1.6h-18c-21.6,0-29.3-9.5-29.3-29.3v-64.8C656.9,1018.1,656.2,1017.3,655.3,1017.3z"/>
		<path class="st1" d="M733.9,970.3c0-6.8,5.1-11.7,11.7-11.7c6.6,0,11.7,4.8,11.7,11.7c0,6.8-5.1,11.7-11.7,11.7
			C738.9,981.9,733.9,977.1,733.9,970.3z M737.9,1000.8h14.9c0.9,0,1.6,0.7,1.6,1.6v109c0,0.9-0.7,1.6-1.6,1.6h-14.9
			c-0.9,0-1.6-0.7-1.6-1.6v-109C736.3,1001.6,737,1000.8,737.9,1000.8z"/>
		<path class="st1" d="M955.1,1048.4v63.1c0,0.9-0.7,1.6-1.6,1.6h-14.9c-0.9,0-1.6-0.7-1.6-1.6v-62c0-22-9.7-33.4-26.6-33.4
			c-18.7,0-30.1,14.1-30.1,37v58.5c0,0.9-0.7,1.6-1.6,1.6h-14.9c-0.9,0-1.6-0.7-1.6-1.6v-62c0-22-9.9-33.4-27.1-33.4
			c-18.5,0-29.7,15.4-29.7,37.8v57.6c0,0.9-0.7,1.6-1.6,1.6H789c-0.9,0-1.6-0.7-1.6-1.6v-109c0-0.9,0.7-1.6,1.6-1.6h12.7
			c0.8,0,1.4,0.6,1.6,1.3l1.6,10.5c0.2,1.4,1.9,1.8,2.8,0.8c6-7.2,15.2-13.9,30.6-13.9c14.7,0,27.4,6.2,34.1,18.8
			c0.6,1.1,2.1,1.1,2.8,0.1c7-10.9,18.8-18.9,37.4-18.9C935.9,999.5,955.1,1012.9,955.1,1048.4z"/>
		<path class="st1" d="M1080.6,1096.8v13.3c0,0.9-0.7,1.6-1.6,1.6h-8.3c-13,0-18.6-4.8-19.9-13.4c-0.2-1.4-1.9-1.8-2.8-0.8
			c-7.1,8.6-17.9,15.5-35.2,15.5c-24.6,0-41.4-12.3-41.4-32.8c0-22.4,15.6-35,45.1-35h31.4c0.9,0,1.6-0.7,1.6-1.6v-6.1
			c0-14.5-10.3-23.3-27.9-23.3c-15.3,0-25.7,7-28.3,17.7c-0.2,0.7-0.8,1.2-1.5,1.2h-14.9c-1,0-1.7-0.9-1.6-1.9
			c3.4-20.9,21-33.1,47.2-33.1c28.6,0,45.1,14.3,45.1,40.5v49.1c0,5.9,2.2,7.5,7.3,7.5h4.1
			C1079.9,1095.2,1080.6,1095.9,1080.6,1096.8z M1049.6,1062c0-0.9-0.7-1.6-1.6-1.6h-33.2c-16.1,0-25.1,5.9-25.1,18.7
			c0,11,9.5,18.5,24.4,18.5c22.4,0,35.4-13,35.4-31.7V1062z"/>
		<path class="st1" d="M1098.1,959.1h14.9c0.9,0,1.6,0.7,1.6,1.6v150.8c0,0.9-0.7,1.6-1.6,1.6h-14.9c-0.9,0-1.6-0.7-1.6-1.6V960.6
			C1096.5,959.8,1097.2,959.1,1098.1,959.1z"/>
		<path class="st1" d="M1196.2,948.5h98.9c0.9,0,1.7,0.8,1.7,1.7v15.4c0,0.9-0.8,1.7-1.7,1.7h-78.4c-0.9,0-1.7,0.8-1.7,1.7v51.6
			c0,0.9,0.8,1.7,1.7,1.7h64.3c0.9,0,1.7,0.8,1.7,1.7v15.4c0,0.9-0.8,1.7-1.7,1.7h-64.3c-0.9,0-1.7,0.8-1.7,1.7v68.5
			c0,0.9-0.8,1.7-1.7,1.7h-17.1c-0.9,0-1.7-0.8-1.7-1.7V950.2C1194.5,949.2,1195.3,948.5,1196.2,948.5z"/>
		<path class="st1" d="M1316.6,948.5h15.9c0.9,0,1.7,0.8,1.7,1.7v161.2c0,0.9-0.8,1.7-1.7,1.7h-15.9c-0.9,0-1.7-0.8-1.7-1.7V950.2
			C1314.9,949.2,1315.6,948.5,1316.6,948.5z"/>
		<path class="st1" d="M1354.8,1051.7c0-36.4,24.4-61.4,59.5-61.4c35,0,59.5,24.9,59.5,61.4c0,36.4-24.4,61.4-59.5,61.4
			C1379.2,1113,1354.8,1088.1,1354.8,1051.7z M1454,1051.7c0-25.6-16-44.2-39.7-44.2c-23.7,0-39.7,18.6-39.7,44.2
			c0,25.6,16,44.2,39.7,44.2C1438,1095.9,1454,1077.3,1454,1051.7z"/>
		<path class="st1" d="M1482.1,993.1h17c0.7,0,1.3,0.4,1.5,1.1l27.9,91.3c0.5,1.6,2.7,1.6,3.2,0l29.5-91.4c0.2-0.6,0.8-1.1,1.5-1.1
			h15.6c0.7,0,1.3,0.4,1.5,1.1l28.1,91.8c0.4,1.4,2.5,1.4,2.9,0l29.4-91.8c0.2-0.6,0.8-1.1,1.5-1.1h16.3c1,0,1.8,1,1.5,2
			l-38.9,116.8c-0.2,0.6-0.8,1-1.5,1H1600c-0.7,0-1.3-0.4-1.5-1.1l-27.1-83.6c-0.5-1.4-2.4-1.4-2.9,0l-28.3,83.7
			c-0.2,0.6-0.8,1-1.5,1h-18.9c-0.7,0-1.3-0.4-1.5-1.1l-37.8-116.8C1480.3,994.2,1481,993.1,1482.1,993.1z"/>
	</g>
	<g id="Primary_00000109714904199538315710000014776236987297066415_">
		<path class="st1" d="M237.1,639.6h27c1,0,1.9,0.8,1.9,1.9v134.8c0,48.8,20.5,74.1,63.4,74.1c43.5,0,64.1-25.2,64.1-74.1V641.5
			c0-1,0.8-1.9,1.9-1.9h27c1,0,1.9,0.8,1.9,1.9v133.1c0,67.3-32.9,102.7-94.8,102.7s-94.1-35.3-94.1-102.7V641.5
			C235.2,640.5,236.1,639.6,237.1,639.6z"/>
		<path class="st1" d="M562.7,716.8v21.7c0,1-0.8,1.9-1.9,1.9h-13.5c-40.2,0-51.1,28.3-51.1,54.1v80.9c0,1-0.8,1.9-1.9,1.9h-27.1
			c-1,0-1.9-0.8-1.9-1.9V716.8c0-1,0.8-1.9,1.9-1.9h23.2c0.9,0,1.7,0.7,1.9,1.6l3.2,18.7c0.3,1.6,2.3,2.1,3.3,0.9
			c9.2-11.2,24.2-21.2,55.3-21.2h6.8C561.9,714.9,562.7,715.7,562.7,716.8z"/>
		<path class="st1" d="M568.2,790.1c0-51.8,36.2-87.2,88.1-87.2s88.1,35.4,88.1,87.2c0,51.8-36.2,87.2-88.1,87.2
			S568.2,841.9,568.2,790.1z M715.1,790.1c0-36.4-23.7-62.8-58.8-62.8s-58.8,26.4-58.8,62.8c0,36.4,23.7,62.8,58.8,62.8
			S715.1,826.5,715.1,790.1z"/>
		<path class="st1" d="M777.7,644.9h138.6c1,0,1.9,0.8,1.9,1.9v22.8c0,1-0.8,1.9-1.9,1.9H806.2c-1,0-1.9,0.8-1.9,1.9v73.9
			c0,1,0.8,1.9,1.9,1.9h90.5c1,0,1.9,0.8,1.9,1.9v22.8c0,1-0.8,1.9-1.9,1.9h-90.5c-1,0-1.9,0.8-1.9,1.9v97.8c0,1-0.8,1.9-1.9,1.9
			h-24.7c-1,0-1.9-0.8-1.9-1.9V646.8C775.9,645.7,776.7,644.9,777.7,644.9z"/>
		<path class="st1" d="M1027.1,736.6h-28.7c-1,0-1.9-0.8-1.9-1.9v-20.5c0-1,0.8-1.9,1.9-1.9h28.7c1,0,1.9-0.8,1.9-1.9V668
			c0-1,0.8-1.9,1.9-1.9h25.2c1,0,1.9,0.8,1.9,1.9v42.5c0,1,0.8,1.9,1.9,1.9h42.8c1,0,1.9,0.8,1.9,1.9v20.5c0,1-0.8,1.9-1.9,1.9
			h-42.8c-1,0-1.9,0.8-1.9,1.9V834c0,13.9,5.3,19.1,20.8,19.1h26.7c1,0,1.9,0.8,1.9,1.9v20.5c0,1-0.8,1.9-1.9,1.9h-29.5
			c-34.6,0-46.9-13.9-46.9-43v-95.8C1029,737.5,1028.2,736.6,1027.1,736.6z"/>
		<path class="st1" d="M1283.3,785.5v89.9c0,1-0.8,1.9-1.9,1.9h-23c-1,0-1.9-0.8-1.9-1.9v-88.3c0-34.3-16-52.4-45.1-52.4
			c-31.3,0-50.3,22.9-50.3,60.1v80.5c0,1-0.8,1.9-1.9,1.9h-23c-1,0-1.9-0.8-1.9-1.9V714.4c0-1,0.8-1.9,1.9-1.9h19.7
			c0.9,0,1.7,0.7,1.9,1.6l2.7,16.6c0.3,1.6,2.2,2.1,3.2,1c10.1-11.3,26.5-21.1,52.3-21.1C1253.5,710.6,1283.3,730.9,1283.3,785.5z"
			/>
		<path class="st1" d="M1308.5,792.2c0-50.6,32.7-85.1,80.7-85.1c48,0,79.4,29.7,80.7,78.9c0,3.1-0.2,6.4-0.5,9.7
			c-0.1,1-0.9,1.7-1.9,1.7H1339c-1,0-1.9,0.8-1.9,1.9v0.4c1,31.6,21.3,53.8,53.7,53.8c23.5,0,41.9-11.9,48-32.6
			c0.2-0.8,1-1.4,1.8-1.4h23.9c1.2,0,2.1,1.1,1.8,2.3c-7.5,32.1-35.1,55.4-73.5,55.4C1341.8,877.3,1308.5,843.1,1308.5,792.2z
			 M1438.4,775.2c1.1,0,2-1,1.9-2.1c-3.4-27.4-23.2-42.6-50.8-42.6c-24.3,0-46.8,16.7-50.4,42.5c-0.2,1.1,0.7,2.2,1.9,2.2
			L1438.4,775.2L1438.4,775.2z"/>
		<path class="st1" d="M1507.6,820.5c1,0,1.8,0.7,1.9,1.7c1.8,18.7,17.8,32.3,43.1,32.3c22.1,0,37.7-10.1,37.7-25.5
			c0-20.9-17.2-22.5-40.5-25.5c-34.9-4.6-62.8-12.1-62.8-46.7c0-30.4,26.1-50.3,61.3-50c34.8,0.3,60.3,17.3,63.6,50.6
			c0.1,1.1-0.8,2-1.9,2h-22c-0.9,0-1.7-0.7-1.9-1.6c-2.5-16.2-17-28.2-37.8-28.2c-21.8,0-36.5,9.8-36.5,25.2
			c0,18.3,16.5,20.6,39.2,23.5c35.6,4.6,64.1,11.8,64.1,48.7c0,31-27.9,50.3-62.5,50.3c-39.7,0-67.4-19.6-68.9-54.9
			c0-1.1,0.8-1.9,1.9-1.9L1507.6,820.5L1507.6,820.5z"/>
		<path class="st1" d="M1657.3,820.5c1,0,1.8,0.7,1.9,1.7c1.8,18.7,17.8,32.3,43.1,32.3c22.1,0,37.7-10.1,37.7-25.5
			c0-20.9-17.2-22.5-40.5-25.5c-34.9-4.6-62.8-12.1-62.8-46.7c0-30.4,26.1-50.3,61.3-50c34.8,0.3,60.3,17.3,63.6,50.6
			c0.1,1.1-0.8,2-1.9,2h-22c-0.9,0-1.7-0.7-1.9-1.6c-2.5-16.2-17-28.2-37.8-28.2c-21.8,0-36.5,9.8-36.5,25.2
			c0,18.3,16.5,20.6,39.2,23.5c35.6,4.6,64.1,11.8,64.1,48.7c0,31-27.9,50.3-62.5,50.3c-39.7,0-67.4-19.6-68.9-54.9
			c0-1.1,0.8-1.9,1.9-1.9L1657.3,820.5L1657.3,820.5z"/>
		<path class="st1" d="M946.5,712.2h26.4c1,0,1.9,0.8,1.9,1.9v161.3c0,1-0.8,1.9-1.9,1.9h-26.4c-1,0-1.9-0.8-1.9-1.9V714.1
			C944.6,713.1,945.4,712.2,946.5,712.2z M944.5,660.1c0-9.1,6.6-15.5,15.2-15.5c8.6,0,15.1,6.4,15.1,15.5c0,9.1-6.6,15.5-15.1,15.5
			C951.1,675.6,944.5,669.2,944.5,660.1z"/>
	</g>
</g>
</svg>
