<?xml version="1.0" encoding="utf-8"?>
<!-- Generator: Adobe Illustrator 27.5.0, SVG Export Plug-In . SVG Version: 6.00 Build 0)  -->
<svg version="1.1" id="Layer_1" xmlns="http://www.w3.org/2000/svg" xmlns:xlink="http://www.w3.org/1999/xlink" x="0px" y="0px"
	 viewBox="0 0 2000 2000" style="enable-background:new 0 0 2000 2000;" xml:space="preserve">
<style type="text/css">
	.st0{fill:#FAFAFA;}
	.st1{fill:#4DA3CF;}
	.st2{fill:#0F1A2C;}
	.st3{font-family:'AeonikPro-Medium';}
	.st4{font-size:78.7164px;}
</style>
<g>
	<g>
		<path class="st2" d="M1041,1108.5c0,33.4-22.3,55.9-52.5,55.9c-16,0-27.5-5.7-34.6-14c-1-1.2-2.9-0.5-2.9,1.1v52.8
			c0,0.9-0.7,1.7-1.7,1.7h-14.2c-0.9,0-1.7-0.7-1.7-1.7v-148.7c0-0.9,0.7-1.7,1.7-1.7h12.1c0.8,0,1.5,0.6,1.6,1.4l1.6,12.2
			c0.2,1.4,2,1.9,2.9,0.9c7.4-8.7,18.6-15.8,35.1-15.8C1018.7,1052.6,1041,1072.9,1041,1108.5z M1023,1108.5
			c0-23.8-14.6-40.3-36.2-40.3c-21.4,0-36,16.5-36,39.8c0,24,14.6,40.7,36,40.7C1008.5,1148.7,1023,1132.3,1023,1108.5z"/>
		<path class="st2" d="M507,1015.2c0-0.9,0.7-1.7,1.7-1.7h51.5c31.9,0,49.7,15.4,49.7,39.6c0,15.2-7.4,25.2-18.9,30.7
			c-1.4,0.6-1.2,2.6,0.2,3.1c13.7,4.1,24.9,14.4,24.9,33.7c0,26.6-18.8,42.8-54.4,42.8h-53c-0.9,0-1.7-0.7-1.7-1.7V1015.2z
			 M525.7,1032.1v44.9c0,0.9,0.7,1.7,1.7,1.7H561c19.3,0,30.2-9,30.2-24.2c0-15-10.7-24-30.2-24h-33.7
			C526.4,1030.4,525.7,1031.2,525.7,1032.1z M525.7,1097v47.9c0,0.9,0.7,1.7,1.7,1.7h34.3c23.1,0,35.3-9.6,35.3-25.1
			c0-16.9-13.1-26.1-35.3-26.1h-34.3C526.4,1095.3,525.7,1096.1,525.7,1097z"/>
		<path class="st2" d="M643.9,1013.5h14.2c0.9,0,1.7,0.7,1.7,1.7v146.6c0,0.9-0.7,1.7-1.7,1.7h-14.2c-0.9,0-1.7-0.7-1.7-1.7v-146.6
			C642.2,1014.2,643,1013.5,643.9,1013.5z"/>
		<path class="st2" d="M766.1,1052.9h14.2c0.9,0,1.7,0.7,1.7,1.7v105.9c0,0.9-0.7,1.7-1.7,1.7h-12.1c-0.8,0-1.5-0.6-1.6-1.4
			l-1.6-9.6c-0.2-1.4-1.9-1.9-2.9-0.9c-6.6,7.1-16.6,13.2-32.6,13.2c-24,0-43.1-13.5-43.1-49.7v-59.2c0-0.9,0.7-1.7,1.7-1.7h14.2
			c0.9,0,1.7,0.7,1.7,1.7v58.1c0,22.7,10.3,34.7,28.5,34.7c19.9,0,31.9-15.2,31.9-39.8v-53C764.4,1053.6,765.2,1052.9,766.1,1052.9z
			"/>
		<path class="st2" d="M806.4,1107.5c0-33.2,21-55.9,51.8-55.9c30.8,0,51,19.5,51.8,51.8c0,1.9-0.1,4-0.3,6.1
			c-0.1,0.8-0.7,1.4-1.5,1.4h-81.9c-0.8,0-1.5,0.7-1.5,1.5l0,0c0.6,20.8,13.7,35.3,34.5,35.3c15,0,26.8-7.7,30.8-21.2
			c0.2-0.6,0.8-1.1,1.4-1.1h14.8c1,0,1.7,0.9,1.5,1.9c-4.9,20.9-22.6,36-47.1,36C827.8,1163.4,806.4,1140.9,806.4,1107.5z
			 M889.5,1096.4c0.9,0,1.6-0.8,1.5-1.7c-2.3-17.8-14.9-27.6-32.6-27.6c-15.5,0-29.9,10.8-32.3,27.6c-0.1,0.9,0.6,1.7,1.5,1.7H889.5
			z"/>
		<path class="st2" d="M1115.1,1055.9v13.8c0,0.9-0.7,1.7-1.7,1.7h-7.1c-22.9,0-29.1,19.1-29.1,36.4v54c0,0.9-0.7,1.7-1.7,1.7h-14.2
			c-0.9,0-1.7-0.7-1.7-1.7v-105.9c0-0.9,0.7-1.7,1.7-1.7h12.1c0.8,0,1.5,0.6,1.6,1.4l1.5,10.8c0.2,1.5,2.1,1.9,3,0.8
			c5.3-7,13.9-13,30.6-13h3.3C1114.4,1054.2,1115.1,1054.9,1115.1,1055.9z"/>
		<path class="st2" d="M1134.2,1024.4c0-6.6,4.9-11.4,11.4-11.4s11.4,4.7,11.4,11.4c0,6.6-4.9,11.4-11.4,11.4
			S1134.2,1031.1,1134.2,1024.4z M1138.2,1054.2h14.2c0.9,0,1.7,0.7,1.7,1.7v105.9c0,0.9-0.7,1.7-1.7,1.7h-14.2
			c-0.9,0-1.7-0.7-1.7-1.7v-105.9C1136.5,1054.9,1137.3,1054.2,1138.2,1054.2z"/>
		<path class="st2" d="M1281.9,1102.6v59.2c0,0.9-0.7,1.7-1.7,1.7H1266c-0.9,0-1.7-0.7-1.7-1.7v-58.1c0-22.7-10.5-34.7-29.6-34.7
			c-20.6,0-33,15.2-33,39.8v53c0,0.9-0.7,1.7-1.7,1.7h-14.2c-0.9,0-1.7-0.7-1.7-1.7v-105.9c0-0.9,0.7-1.7,1.7-1.7h12.1
			c0.8,0,1.5,0.6,1.6,1.4l1.6,9.8c0.2,1.4,1.9,1.9,2.9,0.9c6.7-7.2,17.3-13.3,33.7-13.3C1262.5,1052.9,1281.9,1066.4,1281.9,1102.6z
			"/>
		<path class="st2" d="M1313.3,1070.3h-16.4c-0.9,0-1.7-0.7-1.7-1.7v-12.7c0-0.9,0.7-1.7,1.7-1.7h16.4c0.9,0,1.7-0.7,1.7-1.7v-27.3
			c0-0.9,0.7-1.7,1.7-1.7h14.2c0.9,0,1.7,0.7,1.7,1.7v27.3c0,0.9,0.7,1.7,1.7,1.7h25c0.9,0,1.7,0.7,1.7,1.7v12.7
			c0,0.9-0.7,1.7-1.7,1.7h-25c-0.9,0-1.7,0.7-1.7,1.7v62.8c0,9.2,3.2,12.6,12.6,12.6h15.7c0.9,0,1.7,0.7,1.7,1.7v12.7
			c0,0.9-0.7,1.7-1.7,1.7h-17.4c-21,0-28.5-9.2-28.5-28.5v-63C1314.9,1071,1314.2,1070.3,1313.3,1070.3z"/>
		<text transform="matrix(1 0 0 1 1378.3506 1111.7507)" class="st2 st3 st4">TM</text>
	</g>
	<g>
		<path class="st2" d="M414.1,958.6c-43.3,0-73.5-33-73.5-78.3c0-45.3,30.1-78.3,73.5-78.3s73.5,33,73.5,78.3
			C487.5,925.6,457.4,958.6,414.1,958.6z M414.1,941c32.1,0,53.9-25.3,53.9-60.7s-21.8-60.7-53.9-60.7s-53.9,25.3-53.9,60.7
			S381.9,941,414.1,941z"/>
		<path class="st2" d="M623.4,896.5c0,34.3-22.9,57.4-53.9,57.4c-16.6,0-28.4-5.9-35.7-14.6c-0.9-1.1-2.8-0.5-2.8,1V995
			c0,0.9-0.7,1.6-1.6,1.6h-14.9c-0.9,0-1.6-0.7-1.6-1.6v-153c0-0.9,0.7-1.6,1.6-1.6h12.6c0.8,0,1.5,0.6,1.6,1.4l1.7,12.9
			c0.2,1.4,1.9,1.9,2.8,0.8c7.6-9.1,19.1-16.4,36.2-16.4C600.5,839,623.4,859.9,623.4,896.5z M604.9,896.5c0-24.4-15-41.4-37.2-41.4
			c-22,0-37,16.9-37,40.9c0,24.6,15,41.8,37,41.8C590,937.8,604.9,920.9,604.9,896.5z"/>
		<path class="st2" d="M655.3,862.9h-17.1c-0.9,0-1.6-0.7-1.6-1.6V848c0-0.9,0.7-1.6,1.6-1.6h17.1c0.9,0,1.6-0.7,1.6-1.6v-28.3
			c0-0.9,0.7-1.6,1.6-1.6h14.9c0.9,0,1.6,0.7,1.6,1.6v28.3c0,0.9,0.7,1.6,1.6,1.6h25.9c0.9,0,1.6,0.7,1.6,1.6v13.3
			c0,0.9-0.7,1.6-1.6,1.6h-25.9c-0.9,0-1.6,0.7-1.6,1.6v64.6c0,9.5,3.3,13,13,13h16.2c0.9,0,1.6,0.7,1.6,1.6V957
			c0,0.9-0.7,1.6-1.6,1.6h-18c-21.6,0-29.3-9.5-29.3-29.3v-64.8C656.9,863.6,656.2,862.9,655.3,862.9z"/>
		<path class="st2" d="M733.9,815.9c0-6.8,5.1-11.7,11.7-11.7c6.6,0,11.7,4.8,11.7,11.7c0,6.8-5.1,11.7-11.7,11.7
			C738.9,827.5,733.9,822.7,733.9,815.9z M737.9,846.4h14.9c0.9,0,1.6,0.7,1.6,1.6v109c0,0.9-0.7,1.6-1.6,1.6h-14.9
			c-0.9,0-1.6-0.7-1.6-1.6V848C736.3,847.1,737,846.4,737.9,846.4z"/>
		<path class="st2" d="M955.1,893.9V957c0,0.9-0.7,1.6-1.6,1.6h-14.9c-0.9,0-1.6-0.7-1.6-1.6v-62c0-22-9.7-33.4-26.6-33.4
			c-18.7,0-30.1,14.1-30.1,37V957c0,0.9-0.7,1.6-1.6,1.6h-14.9c-0.9,0-1.6-0.7-1.6-1.6v-62c0-22-9.9-33.4-27.1-33.4
			c-18.5,0-29.7,15.4-29.7,37.8V957c0,0.9-0.7,1.6-1.6,1.6H789c-0.9,0-1.6-0.7-1.6-1.6V848c0-0.9,0.7-1.6,1.6-1.6h12.7
			c0.8,0,1.4,0.6,1.6,1.3l1.6,10.5c0.2,1.4,1.9,1.8,2.8,0.8c6-7.2,15.2-13.9,30.6-13.9c14.7,0,27.4,6.2,34.1,18.8
			c0.6,1.1,2.1,1.1,2.8,0.1c7-10.9,18.8-18.9,37.4-18.9C935.9,845.1,955.1,858.5,955.1,893.9z"/>
		<path class="st2" d="M1080.6,942.4v13.3c0,0.9-0.7,1.6-1.6,1.6h-8.3c-13,0-18.6-4.8-19.9-13.4c-0.2-1.4-1.9-1.8-2.8-0.8
			c-7.1,8.6-17.9,15.5-35.2,15.5c-24.6,0-41.4-12.3-41.4-32.8c0-22.4,15.6-35,45.1-35h31.4c0.9,0,1.6-0.7,1.6-1.6v-6.1
			c0-14.5-10.3-23.3-27.9-23.3c-15.3,0-25.7,7-28.3,17.7c-0.2,0.7-0.8,1.2-1.5,1.2l-14.9,0c-1,0-1.7-0.9-1.6-1.9
			c3.4-20.9,21-33.1,47.2-33.1c28.6,0,45.1,14.3,45.1,40.5v49.1c0,5.9,2.2,7.5,7.3,7.5h4.1C1079.9,940.8,1080.6,941.5,1080.6,942.4z
			 M1049.6,907.6c0-0.9-0.7-1.6-1.6-1.6h-33.2c-16.1,0-25.1,5.9-25.1,18.7c0,11,9.5,18.5,24.4,18.5c22.4,0,35.4-13,35.4-31.7V907.6z
			"/>
		<path class="st2" d="M1098.1,804.6h14.9c0.9,0,1.6,0.7,1.6,1.6V957c0,0.9-0.7,1.6-1.6,1.6h-14.9c-0.9,0-1.6-0.7-1.6-1.6V806.2
			C1096.5,805.3,1097.2,804.6,1098.1,804.6z"/>
		<path class="st2" d="M1196.2,794.1h98.9c0.9,0,1.7,0.8,1.7,1.7v15.4c0,0.9-0.8,1.7-1.7,1.7h-78.4c-0.9,0-1.7,0.8-1.7,1.7v51.6
			c0,0.9,0.8,1.7,1.7,1.7h64.3c0.9,0,1.7,0.8,1.7,1.7V885c0,0.9-0.8,1.7-1.7,1.7h-64.3c-0.9,0-1.7,0.8-1.7,1.7v68.5
			c0,0.9-0.8,1.7-1.7,1.7h-17.1c-0.9,0-1.7-0.8-1.7-1.7V795.8C1194.5,794.8,1195.3,794.1,1196.2,794.1z"/>
		<path class="st2" d="M1316.6,794.1h15.9c0.9,0,1.7,0.8,1.7,1.7v161.2c0,0.9-0.8,1.7-1.7,1.7h-15.9c-0.9,0-1.7-0.8-1.7-1.7V795.8
			C1314.9,794.8,1315.6,794.1,1316.6,794.1z"/>
		<path class="st2" d="M1354.8,897.3c0-36.4,24.4-61.4,59.5-61.4c35,0,59.5,24.9,59.5,61.4s-24.4,61.4-59.5,61.4
			C1379.2,958.6,1354.8,933.7,1354.8,897.3z M1454,897.3c0-25.6-16-44.2-39.7-44.2c-23.7,0-39.7,18.6-39.7,44.2
			c0,25.6,16,44.2,39.7,44.2C1438,941.5,1454,922.9,1454,897.3z"/>
		<path class="st2" d="M1482.1,838.7h17c0.7,0,1.3,0.4,1.5,1.1l27.9,91.3c0.5,1.6,2.7,1.6,3.2,0l29.5-91.4c0.2-0.6,0.8-1.1,1.5-1.1
			h15.6c0.7,0,1.3,0.4,1.5,1.1l28.1,91.8c0.4,1.4,2.5,1.4,2.9,0l29.4-91.8c0.2-0.6,0.8-1.1,1.5-1.1h16.3c1,0,1.8,1,1.5,2
			l-38.9,116.8c-0.2,0.6-0.8,1-1.5,1H1600c-0.7,0-1.3-0.4-1.5-1.1l-27.1-83.6c-0.5-1.4-2.4-1.4-2.9,0l-28.3,83.7
			c-0.2,0.6-0.8,1-1.5,1h-18.9c-0.7,0-1.3-0.4-1.5-1.1l-37.8-116.8C1480.3,839.7,1481,838.7,1482.1,838.7z"/>
	</g>
</g>
</svg>
