<?xml version="1.0" encoding="utf-8"?>
<!-- Generator: Adobe Illustrator 27.5.0, SVG Export Plug-In . SVG Version: 6.00 Build 0)  -->
<svg version="1.1" id="Layer_1" xmlns="http://www.w3.org/2000/svg" xmlns:xlink="http://www.w3.org/1999/xlink" x="0px" y="0px"
	 viewBox="0 0 36 36" style="enable-background:new 0 0 36 36;" xml:space="preserve">
<style type="text/css">
	.st0{fill:none;stroke:#0E1A2C;stroke-width:2;stroke-miterlimit:10;}
	.st1{fill:none;stroke:#0E1A2C;stroke-linecap:round;stroke-miterlimit:10;}
	.st2{fill:none;stroke:#FFFFFF;stroke-width:2;stroke-miterlimit:10;}
	.st3{fill:none;stroke:#FFFFFF;stroke-linecap:round;stroke-miterlimit:10;}
</style>
<g>
	<path class="st0" d="M28.1,30H7.9c-1,0-1.9-0.8-1.9-1.9V7.9C6,6.8,6.8,6,7.9,6h20.2c1,0,1.9,0.8,1.9,1.9v20.2
		C30,29.2,29.2,30,28.1,30z"/>
	<g>
		<path class="st1" d="M23,25.9H13c-0.3,0-0.5-0.2-0.5-0.5V10.6c0-0.3,0.2-0.5,0.5-0.5h10c0.3,0,0.5,0.2,0.5,0.5v14.7
			C23.5,25.6,23.2,25.9,23,25.9z"/>
		<path class="st1" d="M18.5,22.7h-1c-1.7,0-3.1-1.4-3.1-3.1v-2.9c0-1.7,1.4-3.1,3.1-3.1h1c1.7,0,3.1,1.4,3.1,3.1v2.9
			C21.6,21.3,20.2,22.7,18.5,22.7z"/>
		<line class="st1" x1="14.8" y1="17.5" x2="21.2" y2="17.5"/>
	</g>
</g>
</svg>
