<?xml version="1.0" encoding="utf-8"?>
<!-- Generator: Adobe Illustrator 27.5.0, SVG Export Plug-In . SVG Version: 6.00 Build 0)  -->
<svg version="1.1" id="Layer_1" xmlns="http://www.w3.org/2000/svg" xmlns:xlink="http://www.w3.org/1999/xlink" x="0px" y="0px"
	 viewBox="0 0 36 36" style="enable-background:new 0 0 36 36;" xml:space="preserve">
<style type="text/css">
	.st0{fill:none;stroke:#0E1A2C;stroke-width:2;stroke-miterlimit:10;}
	.st1{fill:none;stroke:#0E1A2C;stroke-linecap:round;stroke-miterlimit:10;}
	.st2{fill:none;stroke:#FFFFFF;stroke-width:2;stroke-miterlimit:10;}
	.st3{fill:none;stroke:#FFFFFF;stroke-linecap:round;stroke-miterlimit:10;}
</style>
<g>
	<path class="st0" d="M28.1,30H7.9c-1,0-1.9-0.8-1.9-1.9V7.9C6,6.8,6.8,6,7.9,6h20.2c1,0,1.9,0.8,1.9,1.9v20.2
		C30,29.2,29.2,30,28.1,30z"/>
	<g>
		<path class="st1" d="M24.7,20.2c0.2-0.3,0.3-0.7,0.2-1l-0.6-1.6c0.2-0.1,0.3-0.2,0.4-0.4c0.2-0.3,0.3-0.7,0.2-1v0l-0.7-2.1
			c0,0,0-0.1,0-0.1c-0.3-1-1.1-1.6-2-1.6h0l-8.2,0c-1.2,0-1.7,0.4-2.1,1.7l-0.8,2.2v0c-0.1,0.3,0,0.7,0.2,0.9
			c0.1,0.2,0.2,0.3,0.4,0.4l-0.6,1.7l0,0c-0.1,0.3,0,0.7,0.2,0.9c0.1,0.2,0.2,0.3,0.4,0.4L11,22.3l0,0c-0.1,0.4,0,0.7,0.2,1
			c0.2,0.3,0.5,0.5,0.9,0.5h11.7c0.3,0,0.7-0.2,0.9-0.5c0.2-0.3,0.3-0.7,0.2-1v0l-0.6-1.7C24.5,20.5,24.6,20.3,24.7,20.2z
			 M11.5,20.6h12.5 M11.7,17.6h12.9"/>
	</g>
</g>
</svg>
