<?xml version="1.0" encoding="utf-8"?>
<!-- Generator: Adobe Illustrator 27.5.0, SVG Export Plug-In . SVG Version: 6.00 Build 0)  -->
<svg version="1.1" id="Layer_1" xmlns="http://www.w3.org/2000/svg" xmlns:xlink="http://www.w3.org/1999/xlink" x="0px" y="0px"
	 viewBox="0 0 36 36" style="enable-background:new 0 0 36 36;" xml:space="preserve">
<style type="text/css">
	.st0{fill:none;stroke:#0E1A2C;stroke-width:2;stroke-miterlimit:10;}
	.st1{fill:none;stroke:#0E1A2C;stroke-linecap:round;stroke-miterlimit:10;}
	.st2{fill:none;stroke:#0E1A2C;stroke-miterlimit:10;}
	.st3{fill:none;stroke:#FFFFFF;stroke-width:2;stroke-miterlimit:10;}
	.st4{fill:none;stroke:#FFFFFF;stroke-linecap:round;stroke-miterlimit:10;}
	.st5{fill:none;stroke:#FFFFFF;stroke-miterlimit:10;}
</style>
<g>
	<path class="st0" d="M28.1,30H7.9c-1,0-1.9-0.8-1.9-1.9V7.9C6,6.8,6.8,6,7.9,6h20.2c1,0,1.9,0.8,1.9,1.9v20.2
		C30,29.2,29.2,30,28.1,30z"/>
	<g>
		<g>
			<path class="st1" d="M21.2,18.6l3.8-5 M10.4,22.8l3.2-3.1"/>
		</g>
		<circle class="st2" cx="15.1" cy="18.1" r="1.7"/>
		<circle class="st2" cx="19.7" cy="19.7" r="1.7"/>
		<line class="st1" x1="16.8" y1="18.7" x2="17.8" y2="19.2"/>
		<path class="st1" d="M23.2,12.9l1.8,0.1c0.2,0,0.4,0.2,0.5,0.4c0.1,0.5,0.3,1,0.4,1.5"/>
	</g>
</g>
</svg>
